<?xml version="1.0" encoding="utf-8"?>
<!-- Generator: Adobe Illustrator 26.0.2, SVG Export Plug-In . SVG Version: 6.00 Build 0)  -->
<svg version="1.1" id="Capa_1" xmlns="http://www.w3.org/2000/svg" xmlns:xlink="http://www.w3.org/1999/xlink" x="0px" y="0px"
	 viewBox="0 0 552 401" style="enable-background:new 0 0 552 401;" xml:space="preserve">
<style type="text/css">
	.st0{fill:#D8D8D8;}
	.st1{fill:#F9F9F9;}
	.st2{fill:#FFFFFF;}
	.st3{fill:#c4c3c3;}
</style>
<path class="st3" d="M200.8,133.3c18,0,34.4,7.1,46.5,18.6l0,0c2.7,2.9,6.5,4.7,10.7,4.7c8.1,0,14.7-6.6,14.7-14.7
	c0-4.5-2.1-8.5-5.3-11.2l0.1-0.1c-17.4-16.6-40.9-26.8-66.8-26.8c-53.5,0-97,43.5-97,97c0,53.5,43.5,97,97,97
	c26.1,0,49.8-10.4,67.2-27.2c0.2-0.2,0.4-0.3,0.5-0.5c0,0,0,0,0,0l0,0c2.6-2.6,4.1-6.2,4.1-10.2c0-8.1-6.6-14.7-14.7-14.7
	c-3.9,0-7.3,1.5-10,3.9L248,249c-12.2,11.9-28.8,19.3-47.2,19.3c-37.2,0-67.5-30.3-67.5-67.5S163.6,133.3,200.8,133.3"/>
<path class="st2" d="M294.3,283c-3.6,0-6.9,1.4-9.5,3.5l-0.1-0.1c-21.7,21.2-51.3,34.3-84,34.3c-66.2,0-120.1-53.9-120.1-120
	s53.9-120,120.1-120c32,0,61.1,12.6,82.7,33.1l0.2-0.2c2.5,1.8,5.5,3,8.8,3c8.1,0,14.7-6.6,14.7-14.7c0-3.6-1.3-6.8-3.4-9.3l0.1-0.1
	c-0.2-0.2-0.5-0.4-0.7-0.7c-0.4-0.4-0.8-0.7-1.2-1.1c-26.6-24.5-62.1-39.5-101.1-39.5c-82.4,0-149.5,67.1-149.5,149.5
	s67.1,149.5,149.5,149.5c40.3,0,76.9-16.1,103.8-42.1c0,0,0.1-0.1,0.1-0.1c0.2-0.2,0.4-0.4,0.6-0.6l-0.1-0.1c2.3-2.6,3.7-6,3.7-9.7
	C309,289.6,302.4,283,294.3,283"/>
<path class="st3" d="M345.4,333c0-8.1-6.6-14.7-14.7-14.7c-4.1,0-7.8,1.7-10.5,4.4l0,0c-30.8,30.2-73,48.9-119.4,48.9
	c-94.2,0-170.8-76.6-170.8-170.8c0-92.4,73.8-167.8,165.5-170.6c1.8-0.1,3.5-0.1,5.3-0.1c45.6,0,87,18,117.6,47.1l0.1-0.1
	c2.6,2.6,6.2,4.2,10.2,4.2c8.1,0,14.7-6.6,14.7-14.7c0-4.3-1.8-8-4.7-10.7l0,0C302.8,21.6,254.2,0.6,200.8,0.6
	C90.4,0.6,0.6,90.4,0.6,200.8C0.6,311.2,90.4,401,200.8,401c54.5,0,103.9-21.9,140-57.3l0,0C343.6,341,345.4,337.2,345.4,333"/>
<path class="st2" d="M103.9,200.8c0,51.7,40.7,94.1,91.7,96.8V268c-34.8-2.7-62.2-31.8-62.2-67.2s27.5-64.5,62.2-67.2V104
	C144.5,106.7,103.9,149.1,103.9,200.8"/>
<path class="st3" d="M51.3,200.8c0,80.7,64.2,146.6,144.2,149.4v-29.5c-63.8-2.8-114.8-55.5-114.8-119.9s51-117.1,114.8-119.9V51.4
	C115.5,54.2,51.3,120.1,51.3,200.8"/>
<path class="st2" d="M30.1,200.8c0-92.4,73.8-167.8,165.5-170.6V0.7C87.6,3.5,0.6,92.1,0.6,200.8c0,108.6,87,197.3,194.9,200.1
	v-29.5C103.8,368.6,30.1,293.2,30.1,200.8"/>
<g>
	<path class="st2" d="M169.9,204.8c0-3,0.3-5.6,0.8-7.8c0.5-2.2,1.5-4.1,2.8-5.5c1.3-1.5,3.1-2.6,5.2-3.3c2.2-0.7,4.9-1.1,8.1-1.1
		h24.6c2.9,0,5.4,0.3,7.3,1c1.9,0.6,3.4,1.5,4.6,2.6c1.1,1.1,1.9,2.3,2.4,3.8c0.5,1.4,0.7,3,0.7,4.5v4.1h-5.6v-2.2
		c0-2-0.3-3.6-0.9-4.7c-0.6-1.1-1.4-2-2.4-2.5c-1-0.5-2.1-0.9-3.4-1c-1.3-0.1-2.7-0.2-4.2-0.2h-22.3c-1.5,0-3,0.1-4.3,0.4
		c-1.4,0.3-2.5,0.8-3.5,1.5c-1,0.7-1.8,1.8-2.4,3.1c-0.6,1.3-0.9,3-0.9,5.1v17.9c0,2.1,0.3,3.7,0.9,5.1c0.6,1.3,1.4,2.3,2.4,3.1
		c1,0.7,2.2,1.3,3.5,1.5c1.4,0.3,2.8,0.4,4.3,0.4H210c2.1,0,3.9-0.1,5.4-0.4c1.4-0.3,2.6-0.7,3.4-1.3c0.9-0.6,1.5-1.5,1.8-2.5
		c0.4-1.1,0.5-2.4,0.5-4v-3h6v3.2c0,2.1-0.2,4-0.6,5.7c-0.4,1.7-1.2,3.1-2.4,4.2c-1.2,1.1-2.8,2-4.9,2.5c-2.1,0.6-4.8,0.9-8.1,0.9
		h-24.3c-3.2,0-5.9-0.4-8.1-1.1c-2.2-0.7-3.9-1.8-5.2-3.3c-1.3-1.5-2.2-3.3-2.8-5.5c-0.5-2.2-0.8-4.8-0.8-7.8V204.8z"/>
	<path class="st2" d="M234.1,187.6h38c3.4,0,6.2,0.3,8.3,0.9s3.7,1.4,4.8,2.5c1.1,1.1,1.9,2.5,2.2,4.2c0.4,1.7,0.6,3.6,0.6,5.9v3.9
		c0,1.7-0.2,3.1-0.7,4.2c-0.4,1.1-1.1,2-1.8,2.7c-0.8,0.7-1.7,1.2-2.8,1.5c-1.1,0.3-2.2,0.5-3.4,0.7v0.1c1.6,0.3,3,0.7,4,1.3
		s1.9,1.2,2.5,2c0.6,0.8,1,1.7,1.2,2.6c0.2,0.9,0.4,2,0.4,3.1v12.1h-6v-10.4c0-1.8-0.2-3.3-0.7-4.4c-0.4-1.1-1.1-2-1.9-2.5
		c-0.8-0.6-1.8-0.9-3-1.1c-1.2-0.2-2.5-0.3-3.9-0.3h-31.4v18.8h-6.4V187.6z M271.4,211.1c3.6,0,6.2-0.5,7.8-1.6
		c1.6-1.1,2.4-2.8,2.4-5.3v-4.3c0-1.3-0.2-2.4-0.5-3.3c-0.3-0.9-0.9-1.6-1.8-2.2c-0.9-0.5-2.1-0.9-3.6-1.2c-1.5-0.2-3.4-0.4-5.8-0.4
		h-29.3v18.3H271.4z"/>
	<path class="st2" d="M296.5,187.6h6.4v47.5h-6.4V187.6z"/>
	<path class="st2" d="M311.5,220.1h6v3.3c0,1.2,0.2,2.2,0.5,3.1c0.4,0.9,0.9,1.6,1.7,2.1c0.8,0.6,1.9,1,3.2,1.3c1.3,0.3,3,0.4,5,0.4
		h20c2.3,0,4.3-0.1,5.8-0.4c1.6-0.3,2.8-0.8,3.7-1.4c0.9-0.7,1.6-1.6,2-2.7c0.4-1.1,0.6-2.6,0.6-4.3c0-1.5-0.2-2.7-0.5-3.7
		c-0.3-1-0.9-1.7-1.7-2.3c-0.8-0.6-1.9-1-3.2-1.2c-1.3-0.2-3-0.3-5-0.3h-12.2c-4.9,0-9-0.1-12.3-0.4c-3.3-0.3-6-0.9-8-1.8
		c-2-0.9-3.5-2.3-4.4-4.1c-0.9-1.8-1.3-4.3-1.3-7.5c0-2.7,0.4-4.9,1.2-6.6c0.8-1.7,2-3.1,3.7-4c1.6-1,3.7-1.7,6.1-2
		c2.4-0.4,5.3-0.6,8.7-0.6H345c4,0,7.3,0.3,9.8,0.8c2.6,0.5,4.6,1.3,6.1,2.3c1.5,1.1,2.5,2.4,3.1,3.9c0.6,1.6,0.9,3.4,0.9,5.5v1.6
		h-6c0-1.9-0.2-3.4-0.5-4.6c-0.3-1.2-1-2.1-2.1-2.7c-1.2-0.7-2.9-1.1-5.3-1.3c-2.4-0.2-5.7-0.3-9.9-0.3h-6.8c-3.1,0-5.7,0.1-7.9,0.2
		c-2.1,0.2-3.9,0.5-5.2,1.1c-1.3,0.6-2.3,1.4-2.9,2.5c-0.6,1.1-0.9,2.7-0.9,4.6c0,1.4,0.1,2.6,0.4,3.5c0.3,1,0.9,1.7,1.7,2.3
		c0.9,0.6,2.1,1,3.6,1.3c1.6,0.3,3.6,0.4,6.1,0.4h19c6.3,0,10.8,0.9,13.6,2.8c2.8,1.9,4.2,4.8,4.2,8.9v3.1c0,2.9-0.5,5.2-1.6,6.9
		c-1.1,1.7-2.5,2.9-4.3,3.7c-1.8,0.8-3.8,1.4-6.1,1.6c-2.3,0.2-4.6,0.3-7,0.3h-17.9c-2.4,0-4.6-0.1-6.7-0.4c-2.1-0.3-4-0.9-5.6-1.7
		c-1.6-0.9-2.9-2.1-3.9-3.6c-1-1.6-1.4-3.7-1.4-6.2V220.1z"/>
	<path class="st2" d="M374.1,187.6h9.6l43.5,41.8v-41.8h6.4v47.5h-9.6l-43.5-41.8v41.8h-6.4V187.6z"/>
	<path class="st2" d="M465.8,187.6h8l28.2,47.5h-7.3l-5.9-10h-38.1l-5.9,10h-7.3L465.8,187.6z M469.8,192.8l-16,27h31.9L469.8,192.8
		z"/>
	<path class="st2" d="M520.3,192.8h-24v-5.3h54.5v5.3h-24v42.3h-6.4V192.8z"/>
</g>
</svg>
