<?xml version="1.0" encoding="utf-8"?>
<!-- Generator: Adobe Illustrator 26.0.2, SVG Export Plug-In . SVG Version: 6.00 Build 0)  -->
<svg version="1.1" id="Capa_1" xmlns="http://www.w3.org/2000/svg" xmlns:xlink="http://www.w3.org/1999/xlink" x="0px" y="0px"
	 viewBox="0 0 264.3 192.4" style="enable-background:new 0 0 264.3 192.4;" xml:space="preserve">
<style type="text/css">
	.st0{fill:#38457D;}
	.st1{fill:#75798F;}
</style>
<g>
	<path class="st0" d="M96.2,63.8c8.7,0,16.5,3.4,22.3,9l0,0c1.3,1.4,3.1,2.3,5.1,2.3c3.9,0,7.1-3.2,7.1-7.1c0-2.2-1-4.1-2.5-5.4
		l0-0.1c-8.4-8-19.7-12.9-32.1-12.9c-25.7,0-46.6,20.9-46.6,46.6c0,25.7,20.9,46.6,46.6,46.6c12.5,0,23.9-5,32.3-13.1
		c0.1-0.1,0.2-0.2,0.3-0.2c0,0,0,0,0,0l0,0c1.2-1.3,2-3,2-4.9c0-3.9-3.2-7.1-7.1-7.1c-1.9,0-3.5,0.7-4.8,1.9l0,0
		c-5.9,5.7-13.9,9.3-22.7,9.3c-17.9,0-32.4-14.5-32.4-32.4S78.3,63.8,96.2,63.8"/>
	<path class="st1" d="M141.1,135.7c-1.7,0-3.3,0.7-4.5,1.7l0,0c-10.4,10.2-24.6,16.5-40.3,16.5c-31.8,0-57.7-25.9-57.7-57.7
		s25.9-57.7,57.7-57.7c15.4,0,29.4,6.1,39.7,15.9l0.1-0.1c1.2,0.9,2.6,1.4,4.2,1.4c3.9,0,7.1-3.2,7.1-7.1c0-1.7-0.6-3.3-1.6-4.5l0,0
		c-0.1-0.1-0.2-0.2-0.3-0.3c-0.2-0.2-0.4-0.3-0.6-0.5c-12.8-11.8-29.8-19-48.6-19c-39.6,0-71.8,32.2-71.8,71.8S56.6,168,96.2,168
		c19.4,0,36.9-7.7,49.9-20.2c0,0,0,0,0.1,0c0.1-0.1,0.2-0.2,0.3-0.3l0,0c1.1-1.2,1.8-2.9,1.8-4.7C148.2,138.9,145,135.7,141.1,135.7
		"/>
	<path class="st0" d="M165.7,159.7c0-3.9-3.2-7.1-7.1-7.1c-2,0-3.8,0.8-5,2.1l0,0c-14.8,14.5-35.1,23.5-57.4,23.5
		c-45.2,0-82-36.8-82-82c0-44.4,35.4-80.6,79.5-82c0.8,0,1.7-0.1,2.5-0.1c21.9,0,41.8,8.6,56.5,22.6l0,0c1.3,1.2,3,2,4.9,2
		c3.9,0,7.1-3.2,7.1-7.1c0-2-0.9-3.9-2.3-5.2l0,0C145.2,10.1,121.8,0,96.2,0C43.1,0,0,43.1,0,96.2c0,53,43.1,96.2,96.2,96.2
		c26.2,0,49.9-10.5,67.3-27.5l0,0C164.8,163.5,165.7,161.7,165.7,159.7"/>
	<path class="st1" d="M49.6,96.2c0,24.8,19.5,45.2,44,46.5v-14.2c-16.7-1.3-29.9-15.3-29.9-32.3s13.2-31,29.9-32.3V49.7
		C69.1,51,49.6,71.4,49.6,96.2"/>
	<path class="st0" d="M24.4,96.2c0,38.8,30.9,70.4,69.3,71.8v-14.2c-30.6-1.3-55.1-26.7-55.1-57.6S63,39.9,93.6,38.6V24.4
		C55.2,25.8,24.4,57.4,24.4,96.2"/>
	<path class="st1" d="M14.1,96.2c0-44.4,35.4-80.6,79.5-82V0.1C41.8,1.4,0,44,0,96.2c0,52.2,41.8,94.8,93.6,96.1v-14.1
		C49.6,176.8,14.1,140.6,14.1,96.2"/>
	<path class="st0" d="M81.3,98.1c0-1.5,0.1-2.7,0.4-3.8c0.3-1.1,0.7-2,1.3-2.7c0.6-0.7,1.5-1.2,2.5-1.6c1-0.3,2.3-0.5,3.9-0.5h11.8
		c1.4,0,2.6,0.2,3.5,0.5c0.9,0.3,1.6,0.7,2.2,1.2c0.5,0.5,0.9,1.1,1.2,1.8c0.2,0.7,0.3,1.4,0.3,2.2v2h-2.7v-1c0-1-0.1-1.7-0.4-2.3
		c-0.3-0.5-0.7-1-1.1-1.2c-0.5-0.3-1-0.4-1.7-0.5c-0.6-0.1-1.3-0.1-2-0.1H89.8c-0.7,0-1.4,0.1-2.1,0.2c-0.7,0.1-1.2,0.4-1.7,0.7
		c-0.5,0.4-0.9,0.9-1.2,1.5c-0.3,0.6-0.4,1.4-0.4,2.4v8.6c0,1,0.1,1.8,0.4,2.4c0.3,0.6,0.7,1.1,1.2,1.5c0.5,0.4,1.1,0.6,1.7,0.7
		c0.7,0.1,1.3,0.2,2.1,0.2h10.8c1,0,1.9-0.1,2.6-0.2c0.7-0.1,1.2-0.3,1.7-0.6c0.4-0.3,0.7-0.7,0.9-1.2c0.2-0.5,0.3-1.1,0.3-1.9V105
		h2.9v1.5c0,1-0.1,1.9-0.3,2.7c-0.2,0.8-0.6,1.5-1.2,2c-0.6,0.5-1.4,0.9-2.4,1.2c-1,0.3-2.3,0.4-3.9,0.4H89.4
		c-1.6,0-2.9-0.2-3.9-0.5c-1-0.3-1.9-0.9-2.5-1.6c-0.6-0.7-1.1-1.6-1.3-2.7c-0.3-1.1-0.4-2.3-0.4-3.8V98.1z"/>
	<path class="st0" d="M112.2,89.8h18.3c1.6,0,3,0.1,4,0.4c1,0.3,1.8,0.7,2.3,1.2c0.5,0.5,0.9,1.2,1.1,2c0.2,0.8,0.3,1.8,0.3,2.8v1.9
		c0,0.8-0.1,1.5-0.3,2c-0.2,0.5-0.5,1-0.9,1.3c-0.4,0.3-0.8,0.6-1.3,0.7c-0.5,0.1-1.1,0.3-1.7,0.3v0.1c0.8,0.1,1.4,0.4,1.9,0.6
		c0.5,0.3,0.9,0.6,1.2,1c0.3,0.4,0.5,0.8,0.6,1.2c0.1,0.5,0.2,0.9,0.2,1.5v5.8h-2.9v-5c0-0.9-0.1-1.6-0.3-2.1
		c-0.2-0.5-0.5-0.9-0.9-1.2c-0.4-0.3-0.9-0.5-1.4-0.5c-0.6-0.1-1.2-0.1-1.9-0.1h-15.1v9h-3.1V89.8z M130.1,101.1
		c1.7,0,3-0.3,3.7-0.8c0.8-0.5,1.2-1.4,1.2-2.6v-2.1c0-0.6-0.1-1.2-0.2-1.6c-0.2-0.4-0.5-0.8-0.9-1c-0.4-0.3-1-0.5-1.7-0.6
		c-0.7-0.1-1.7-0.2-2.8-0.2h-14.1v8.8H130.1z"/>
	<path class="st0" d="M142.1,89.8h3.1v22.8h-3.1V89.8z"/>
	<path class="st0" d="M149.4,105.5h2.9v1.6c0,0.6,0.1,1.1,0.3,1.5c0.2,0.4,0.4,0.8,0.8,1c0.4,0.3,0.9,0.5,1.5,0.6
		c0.6,0.1,1.4,0.2,2.4,0.2h9.6c1.1,0,2-0.1,2.8-0.2c0.7-0.1,1.3-0.4,1.8-0.7c0.4-0.3,0.8-0.7,0.9-1.3c0.2-0.5,0.3-1.2,0.3-2.1
		c0-0.7-0.1-1.3-0.2-1.8c-0.2-0.5-0.4-0.8-0.8-1.1c-0.4-0.3-0.9-0.5-1.5-0.6s-1.4-0.2-2.4-0.2h-5.9c-2.4,0-4.3-0.1-5.9-0.2
		c-1.6-0.1-2.9-0.4-3.9-0.9c-1-0.4-1.7-1.1-2.1-2c-0.4-0.9-0.6-2.1-0.6-3.6c0-1.3,0.2-2.4,0.6-3.2c0.4-0.8,1-1.5,1.8-1.9
		c0.8-0.5,1.8-0.8,2.9-1c1.2-0.2,2.6-0.3,4.2-0.3h6.7c1.9,0,3.5,0.1,4.7,0.4c1.2,0.2,2.2,0.6,2.9,1.1c0.7,0.5,1.2,1.1,1.5,1.9
		c0.3,0.8,0.4,1.6,0.4,2.7v0.8h-2.9c0-0.9-0.1-1.6-0.2-2.2c-0.1-0.6-0.5-1-1-1.3c-0.6-0.3-1.4-0.5-2.6-0.6c-1.1-0.1-2.7-0.2-4.7-0.2
		h-3.3c-1.5,0-2.8,0-3.8,0.1c-1,0.1-1.9,0.2-2.5,0.5c-0.6,0.3-1.1,0.7-1.4,1.2c-0.3,0.5-0.4,1.3-0.4,2.2c0,0.7,0.1,1.2,0.2,1.7
		c0.1,0.5,0.4,0.8,0.8,1.1s1,0.5,1.7,0.6c0.7,0.1,1.7,0.2,2.9,0.2h9.1c3,0,5.2,0.5,6.5,1.4c1.3,0.9,2,2.3,2,4.3v1.5
		c0,1.4-0.3,2.5-0.8,3.3c-0.5,0.8-1.2,1.4-2.1,1.8c-0.9,0.4-1.8,0.7-2.9,0.8c-1.1,0.1-2.2,0.2-3.4,0.2h-8.6c-1.1,0-2.2-0.1-3.2-0.2
		c-1-0.1-1.9-0.4-2.7-0.8c-0.8-0.4-1.4-1-1.9-1.8c-0.5-0.8-0.7-1.8-0.7-3V105.5z"/>
	<path class="st0" d="M179.4,89.8h4.6l20.9,20.1V89.8h3.1v22.8h-4.6l-20.9-20.1v20.1h-3.1V89.8z"/>
	<path class="st0" d="M223.5,89.8h3.8l13.6,22.8h-3.5l-2.8-4.8h-18.3l-2.8,4.8h-3.5L223.5,89.8z M225.4,92.4l-7.7,13h15.3
		L225.4,92.4z"/>
	<path class="st0" d="M249.6,92.4h-11.5v-2.5h26.2v2.5h-11.5v20.3h-3.1V92.4z"/>
</g>
</svg>
