<?xml version="1.0" encoding="utf-8"?>
<!-- Generator: Adobe Illustrator 26.0.3, SVG Export Plug-In . SVG Version: 6.00 Build 0)  -->
<svg version="1.1" id="Capa_1" xmlns="http://www.w3.org/2000/svg" xmlns:xlink="http://www.w3.org/1999/xlink" x="0px" y="0px"
	 viewBox="0 0 464 457" style="enable-background:new 0 0 464 457;" xml:space="preserve">
<style type="text/css">
	.st0{fill:#140091;}
	.st1{fill:#F7901E;}
	.st2{fill:#666666;}
	.st3{fill:#FF613C;}
</style>
<g>
	<g>
		<path class="st3" d="M85.7,130h146.4v41.2h-86.9v33.5h74.3v38.7h-74.3v78.3H85.7V130z"/>
	</g>
	<g>
		<path class="st3" d="M392.1,265.4H285.4c1,8.5,3.3,14.9,6.9,19.1c5.1,6,11.9,9,20.1,9c5.2,0,10.2-1.3,14.9-3.9
			c2.9-1.7,6-4.6,9.3-8.8l52.4,4.8c-8,13.9-17.7,23.9-29,30c-11.3,6.1-27.6,9.1-48.8,9.1c-18.4,0-32.9-2.6-43.4-7.8
			c-10.5-5.2-19.3-13.4-26.2-24.7c-6.9-11.3-10.4-24.6-10.4-39.8c0-21.7,6.9-39.3,20.9-52.7c13.9-13.4,33.1-20.1,57.6-20.1
			c19.9,0,35.6,3,47.1,9c11.5,6,20.3,14.7,26.3,26.1c6,11.4,9,26.3,9,44.6V265.4z M338,239.9c-1-10.3-3.8-17.6-8.3-22.1
			c-4.5-4.4-10.4-6.7-17.7-6.7c-8.5,0-15.2,3.4-20.3,10.1c-3.2,4.2-5.3,10.4-6.1,18.7H338z"/>
	</g>
</g>
<g>
	<path class="st3" d="M58.3,64.6c3.2-3.5,5.7-6.5,7.3-9.2c1.7-2.7,2.5-5.7,2.5-8.8c0-4.3-1.5-8-4.6-10.9c-3-3-6.9-4.5-11.4-4.5
		c-4.6,0-8.5,1.6-11.7,4.8c-3.2,3.2-4.9,7.5-5.2,12.9l0,0.8h7l0-0.7c0.3-3.5,1.3-6.2,3-8.1c1.8-1.9,3.9-2.8,6.6-2.8
		c2.7,0,4.8,0.8,6.6,2.6c1.8,1.7,2.6,3.7,2.6,5.9c0,2.3-0.6,4.4-1.9,6.2c-1.3,1.9-3.5,4.5-6.7,7.8l-20,21.6h36.2v-7H48.4L58.3,64.6z
		"/>
	<path class="st3" d="M87.1,52.2c-0.8,0-1.6,0.1-2.4,0.2l11.8-17.9l-6-3.8L75.5,53.2c-2.1,3.1-3.6,5.8-4.4,8
		c-0.8,2.2-1.2,4.4-1.2,6.5c0,4.4,1.5,8.1,4.5,11.2c3,3,6.7,4.6,11.2,4.6c4.5,0,8.3-1.5,11.4-4.5c3.1-3,4.7-6.7,4.7-11.1
		c0-4.3-1.4-8-4.3-11.1C94.4,53.7,91,52.2,87.1,52.2z M85.7,76.4c-2.4,0-4.4-0.8-6.2-2.6c-1.7-1.7-2.6-3.7-2.6-6.2
		c0-2.5,0.8-4.5,2.6-6.2s3.8-2.6,6.2-2.6s4.5,0.8,6.2,2.6s2.6,3.8,2.6,6.2c0,2.5-0.8,4.5-2.6,6.2C90.1,75.6,88.1,76.4,85.7,76.4z"/>
</g>
<g>
	<g>
		<path class="st3" d="M207.9,351.4c0-0.1,0-0.2,0.1-0.3s0.2-0.1,0.3-0.1h0.7c0.1,0,0.2,0,0.3,0.1c0.1,0.1,0.1,0.2,0.1,0.3v17.9
			c0,0.3-0.2,0.5-0.5,0.5h-0.7c-0.3,0-0.5-0.2-0.5-0.5V351.4z"/>
	</g>
	<g>
		<path class="st3" d="M222.3,356.4c0,0-0.1,0.1-0.1,0.1c-0.1,0-0.1,0-0.2-0.1c-0.1,0-0.2-0.1-0.3-0.2c-0.2-0.1-0.4-0.3-0.6-0.4
			c-0.2-0.1-0.5-0.3-0.8-0.4c-0.3-0.1-0.5-0.2-0.8-0.3c-0.3-0.1-0.5-0.1-0.8-0.1c-0.6,0-1.3,0.1-1.8,0.3c-0.6,0.2-1.1,0.6-1.5,1
			c-0.4,0.4-0.8,0.9-1,1.5s-0.4,1.3-0.4,2v9.5c0,0.3-0.1,0.4-0.4,0.4h-0.7c-0.3,0-0.4-0.1-0.4-0.4v-15.2c0-0.2,0.1-0.3,0.4-0.3
			c0,0,0,0,0.1,0c0,0,0,0,0.1,0h0.5c0.2,0,0.3,0,0.3,0.1s0.1,0.2,0.1,0.3v2.1c0.2-0.3,0.4-0.7,0.7-1c0.3-0.3,0.6-0.6,1-0.9
			c0.4-0.3,0.8-0.5,1.3-0.6c0.5-0.2,1-0.2,1.5-0.2c0.4,0,0.8,0,1.2,0.1c0.4,0.1,0.7,0.1,1.1,0.3c0.3,0.1,0.7,0.3,1,0.4
			c0.3,0.2,0.6,0.4,0.9,0.6c0.1,0.1,0.2,0.1,0.2,0.2c0.1,0.1,0.1,0.2,0.1,0.3c0,0.1-0.1,0.2-0.2,0.3S222.4,356.2,222.3,356.4z"/>
	</g>
	<g>
		<path class="st3" d="M223.6,361.8c0-0.8,0.1-1.5,0.3-2.2c0.2-0.7,0.5-1.4,0.8-2c0.4-0.6,0.8-1.2,1.3-1.7c0.5-0.5,1.1-0.9,1.7-1.3
			c0.6-0.4,1.3-0.6,2-0.8c0.7-0.2,1.4-0.3,2.2-0.3c0.8,0,1.5,0.1,2.2,0.3c0.7,0.2,1.4,0.5,2,0.8c0.6,0.4,1.2,0.8,1.7,1.3
			c0.5,0.5,0.9,1.1,1.3,1.7c0.4,0.6,0.6,1.3,0.8,2c0.2,0.7,0.3,1.4,0.3,2.2s-0.1,1.5-0.3,2.2s-0.5,1.4-0.8,2
			c-0.4,0.6-0.8,1.2-1.3,1.7c-0.5,0.5-1.1,0.9-1.7,1.3c-0.6,0.4-1.3,0.6-2,0.8c-0.7,0.2-1.4,0.3-2.2,0.3c-0.8,0-1.5-0.1-2.2-0.3
			c-0.7-0.2-1.4-0.5-2-0.8c-0.6-0.4-1.2-0.8-1.7-1.3c-0.5-0.5-0.9-1.1-1.3-1.7c-0.4-0.6-0.6-1.3-0.8-2S223.6,362.5,223.6,361.8z
			 M225.2,361.8c0,0.6,0.1,1.2,0.2,1.8s0.4,1.1,0.7,1.6c0.3,0.5,0.6,1,1.1,1.4s0.9,0.8,1.4,1.1c0.5,0.3,1,0.5,1.6,0.7
			c0.6,0.2,1.2,0.3,1.8,0.3c0.9,0,1.8-0.2,2.7-0.5s1.6-0.8,2.2-1.5c0.6-0.6,1.1-1.3,1.5-2.2c0.4-0.8,0.5-1.7,0.5-2.7
			c0-0.9-0.2-1.8-0.5-2.6s-0.8-1.6-1.5-2.2c-0.6-0.6-1.3-1.1-2.2-1.5c-0.8-0.4-1.7-0.6-2.6-0.6s-1.8,0.2-2.7,0.5
			c-0.8,0.4-1.6,0.9-2.2,1.5c-0.6,0.6-1.1,1.4-1.5,2.2C225.3,360,225.2,360.8,225.2,361.8z"/>
	</g>
	<g>
		<path class="st3" d="M242.4,354.2c0-0.2,0-0.3,0.1-0.3s0.2-0.1,0.3-0.1h0.5c0.2,0,0.3,0,0.3,0.1c0.1,0.1,0.1,0.2,0.1,0.3v1.9
			c0.4-0.5,0.8-1,1.2-1.3c0.5-0.3,0.9-0.6,1.4-0.8c0.5-0.2,1-0.3,1.4-0.4c0.5-0.1,0.9-0.1,1.3-0.1c1,0,1.9,0.2,2.7,0.5
			s1.5,0.8,2.1,1.5s1,1.3,1.3,2.2c0.3,0.8,0.5,1.7,0.5,2.6v9c0,0.2,0,0.3-0.1,0.4c-0.1,0.1-0.2,0.1-0.4,0.1h-0.5
			c-0.2,0-0.3,0-0.4-0.1c-0.1-0.1-0.1-0.2-0.1-0.4v-9.1c0-0.7-0.2-1.3-0.4-1.9s-0.6-1.2-1-1.7s-1-0.9-1.6-1.2s-1.3-0.4-2.1-0.4
			c-0.7,0-1.3,0.1-1.9,0.4s-1.2,0.6-1.7,1s-0.9,1-1.2,1.6s-0.5,1.3-0.5,2v9.5c0,0.3-0.1,0.4-0.4,0.4h-0.7c-0.3,0-0.4-0.1-0.4-0.4
			v-3.5c0,0,0-0.1,0-0.1V354.2z"/>
	</g>
</g>
<g>
	<g>
		<path class="st3" d="M173.2,385.8v4.5h-16.9l-2.4,13c2.1-0.6,4.1-0.9,5.9-0.9c4.1,0,7.6,1.5,10.4,4.4c2.8,2.9,4.2,6.7,4.2,11.3
			c0,4.6-1.5,8.5-4.5,11.7c-3,3.2-7,4.8-12,4.8c-3.8,0-7-1.1-9.7-3.4c-2.7-2.3-4.3-5.4-4.8-9.3h4.8c0.6,2.6,1.8,4.7,3.6,6.1
			c1.8,1.4,3.9,2.1,6.3,2.1c3.1,0,5.8-1.2,8.1-3.5c2.3-2.3,3.4-5.2,3.4-8.7c0-3.2-1-5.8-3-7.8c-2-2-4.6-3.1-7.8-3.1
			s-6.7,0.8-10.6,2.5l4.4-23.5H173.2z"/>
	</g>
	<g>
		<path class="st3" d="M206.5,385.8v4.5h-16.9l-2.4,13c2.1-0.6,4.1-0.9,5.9-0.9c4.1,0,7.6,1.5,10.4,4.4c2.8,2.9,4.2,6.7,4.2,11.3
			c0,4.6-1.5,8.5-4.5,11.7c-3,3.2-7,4.8-12,4.8c-3.8,0-7-1.1-9.7-3.4c-2.7-2.3-4.3-5.4-4.8-9.3h4.8c0.6,2.6,1.8,4.7,3.6,6.1
			c1.8,1.4,3.9,2.1,6.3,2.1c3.1,0,5.8-1.2,8.1-3.5c2.3-2.3,3.4-5.2,3.4-8.7c0-3.2-1-5.8-3-7.8c-2-2-4.6-3.1-7.8-3.1
			s-6.7,0.8-10.6,2.5l4.4-23.5H206.5z"/>
	</g>
	<g>
		<path class="st3" d="M213.3,430.2c0-1.1,0.4-2,1.2-2.8c0.8-0.8,1.7-1.2,2.8-1.2s2,0.4,2.8,1.2c0.8,0.8,1.2,1.7,1.2,2.8
			s-0.4,2.1-1.2,2.8c-0.8,0.8-1.7,1.2-2.8,1.2s-2-0.4-2.8-1.2S213.3,431.3,213.3,430.2z"/>
	</g>
	<g>
		<path class="st3" d="M247.7,407.3c6,3,9,7.1,9,12.4c0,4.2-1.5,7.8-4.5,10.6c-3,2.8-6.9,4.2-11.7,4.2s-8.7-1.4-11.6-4.2
			c-2.9-2.8-4.4-6.2-4.4-10.2c0-5.6,3.1-9.8,9.2-12.8c-4.6-2.5-6.9-5.9-6.9-10.2c0-3.3,1.4-6.1,4.1-8.6c2.7-2.5,6-3.7,9.8-3.7
			c3.8,0,7.1,1.2,9.8,3.6c2.7,2.4,4,5.4,4,8.9C254.5,401.4,252.2,404.7,247.7,407.3z M251.9,419.7c0-2.7-1.1-5-3.3-7.1
			c-2.2-2-4.8-3-7.9-3s-5.8,1-8,3.1c-2.2,2.1-3.4,4.6-3.4,7.4s1,5.2,3.1,7c2.1,1.8,4.8,2.8,8.1,2.8c3.3,0,6.1-1,8.2-3
			S251.9,422.6,251.9,419.7z M249.7,396.9c0-2.1-0.8-3.9-2.5-5.5c-1.7-1.5-3.8-2.3-6.5-2.3c-2.7,0-4.9,0.8-6.6,2.3s-2.6,3.4-2.6,5.5
			c0,2.2,0.9,4.1,2.8,5.8c1.9,1.7,4,2.5,6.4,2.5c2.4,0,4.5-0.8,6.2-2.5C248.8,401.2,249.7,399.2,249.7,396.9z"/>
	</g>
	<g>
		<path class="st3" d="M283.7,384.7h0.9v33h5.7v4.6h-5.7v11H280v-11h-22.7L283.7,384.7z M280,417.7v-19.8l-14,19.8H280z"/>
	</g>
	<g>
		<path class="st3" d="M321.4,385.8v4.5h-16.9l-2.4,13c2.1-0.6,4.1-0.9,5.9-0.9c4.1,0,7.6,1.5,10.4,4.4c2.8,2.9,4.2,6.7,4.2,11.3
			c0,4.6-1.5,8.5-4.5,11.7c-3,3.2-7,4.8-12,4.8c-3.8,0-7-1.1-9.7-3.4c-2.7-2.3-4.3-5.4-4.8-9.3h4.8c0.6,2.6,1.8,4.7,3.6,6.1
			c1.8,1.4,3.9,2.1,6.3,2.1c3.1,0,5.8-1.2,8.1-3.5c2.3-2.3,3.4-5.2,3.4-8.7c0-3.2-1-5.8-3-7.8c-2-2-4.6-3.1-7.8-3.1
			s-6.7,0.8-10.6,2.5l4.4-23.5H321.4z"/>
	</g>
</g>
<g>
	<g>
		<path class="st3" d="M7,4.4v446.2h446.2V4.4H7z M441.1,439.5h-424v-424h424V439.5z"/>
	</g>
</g>
</svg>
