<?xml version="1.0" encoding="utf-8"?>
<!-- Generator: Adobe Illustrator 26.0.3, SVG Export Plug-In . SVG Version: 6.00 Build 0)  -->
<svg version="1.1" id="Capa_1" xmlns="http://www.w3.org/2000/svg" xmlns:xlink="http://www.w3.org/1999/xlink" x="0px" y="0px"
	 viewBox="0 0 464 457" style="enable-background:new 0 0 464 457;" xml:space="preserve">
<style type="text/css">
	.st0{fill:#140091;}
	.st1{fill:#F7901E;}
	.st2{fill:#666666;}
	.st3{fill:#FF613C;}
</style>
<g>
	<g>
		<path class="st3" d="M177.9,351c0.8,0,1.6,0.2,2.3,0.5c0.7,0.3,1.3,0.7,1.9,1.3c0.5,0.5,0.9,1.2,1.2,1.9s0.5,1.5,0.5,2.3
			c0,0.6-0.1,1.2-0.3,1.7c-0.2,0.5-0.4,1.1-0.7,1.5c-0.3,0.5-0.7,0.9-1.1,1.2s-0.9,0.7-1.4,0.9l3.2,7c0,0.1,0.1,0.2,0.1,0.2
			c0,0.1,0,0.1,0,0.2c0,0-0.1,0.1-0.1,0.1c-0.1,0-0.2,0-0.4,0c-0.2,0-0.4,0-0.7,0c-0.2,0-0.3-0.1-0.3-0.2l-3.1-6.9
			c-0.2,0-0.3,0.1-0.5,0.1c-0.2,0-0.4,0-0.6,0h-6.2v6.6c0,0.3-0.2,0.5-0.5,0.5h-0.5c-0.3,0-0.5-0.2-0.5-0.5v-17.9
			c0.1-0.2,0.1-0.3,0.2-0.3c0.1-0.1,0.2-0.1,0.3-0.1H177.9z M177.2,361.3h0.2c0.3,0,0.7,0,1,0c0.3,0,0.6-0.1,0.9-0.2
			c0.4-0.2,0.8-0.4,1.2-0.6s0.7-0.6,1-1c0.3-0.4,0.5-0.8,0.6-1.2s0.2-0.9,0.2-1.4c0-0.6-0.1-1.2-0.3-1.7c-0.2-0.5-0.5-1-0.9-1.4
			c-0.4-0.4-0.9-0.7-1.4-1c-0.5-0.2-1.1-0.4-1.7-0.4h-6.3v8.9H177.2z"/>
	</g>
	<g>
		<path class="st3" d="M197.8,360.2c0-0.7-0.2-1.3-0.4-1.9c-0.2-0.6-0.5-1.2-1-1.7c-0.4-0.5-0.9-0.9-1.5-1.2c-0.6-0.3-1.3-0.5-2-0.5
			c-0.7,0-1.3,0.1-1.9,0.3c-0.6,0.2-1.2,0.6-1.7,1s-0.9,0.9-1.2,1.5c-0.3,0.6-0.5,1.3-0.5,2v9.6c0,0.3-0.1,0.4-0.4,0.4h-0.7
			c-0.3,0-0.4-0.1-0.4-0.4v-20.3c0-0.3,0.1-0.4,0.4-0.4h0.7c0.3,0,0.4,0.1,0.4,0.4v7.2h0c0.3-0.4,0.6-0.8,1-1.2s0.8-0.6,1.3-0.9
			s1-0.4,1.5-0.6s1.1-0.2,1.7-0.2c0.9,0,1.8,0.2,2.5,0.5c0.8,0.4,1.4,0.8,2,1.5s1,1.3,1.3,2.2c0.3,0.8,0.4,1.7,0.4,2.6v9
			c0,0.2,0,0.3-0.1,0.4c-0.1,0.1-0.2,0.1-0.4,0.1h-0.5c-0.2,0-0.3,0-0.4-0.1c-0.1-0.1-0.1-0.2-0.1-0.4V360.2z"/>
	</g>
	<g>
		<path class="st3" d="M201,361.8c0-0.8,0.1-1.5,0.3-2.2c0.2-0.7,0.5-1.4,0.8-2c0.4-0.6,0.8-1.2,1.3-1.7c0.5-0.5,1.1-0.9,1.7-1.3
			c0.6-0.4,1.3-0.6,2-0.8c0.7-0.2,1.4-0.3,2.2-0.3c0.8,0,1.5,0.1,2.2,0.3c0.7,0.2,1.4,0.5,2,0.8c0.6,0.4,1.2,0.8,1.7,1.3
			c0.5,0.5,0.9,1.1,1.3,1.7c0.4,0.6,0.6,1.3,0.8,2c0.2,0.7,0.3,1.4,0.3,2.2s-0.1,1.5-0.3,2.2s-0.5,1.4-0.8,2
			c-0.4,0.6-0.8,1.2-1.3,1.7c-0.5,0.5-1.1,0.9-1.7,1.3c-0.6,0.4-1.3,0.6-2,0.8c-0.7,0.2-1.4,0.3-2.2,0.3c-0.8,0-1.5-0.1-2.2-0.3
			c-0.7-0.2-1.4-0.5-2-0.8c-0.6-0.4-1.2-0.8-1.7-1.3c-0.5-0.5-0.9-1.1-1.3-1.7c-0.4-0.6-0.6-1.3-0.8-2S201,362.5,201,361.8z
			 M202.5,361.8c0,0.6,0.1,1.2,0.2,1.8s0.4,1.1,0.7,1.6c0.3,0.5,0.6,1,1.1,1.4s0.9,0.8,1.4,1.1c0.5,0.3,1,0.5,1.6,0.7
			c0.6,0.2,1.2,0.3,1.8,0.3c0.9,0,1.8-0.2,2.7-0.5s1.6-0.8,2.2-1.5c0.6-0.6,1.1-1.3,1.5-2.2c0.4-0.8,0.5-1.7,0.5-2.7
			c0-0.9-0.2-1.8-0.5-2.6s-0.8-1.6-1.5-2.2c-0.6-0.6-1.3-1.1-2.2-1.5c-0.8-0.4-1.7-0.6-2.6-0.6s-1.8,0.2-2.7,0.5
			c-0.8,0.4-1.6,0.9-2.2,1.5c-0.6,0.6-1.1,1.4-1.5,2.2C202.7,360,202.5,360.8,202.5,361.8z"/>
	</g>
	<g>
		<path class="st3" d="M235.4,369.4c0,0.3-0.1,0.4-0.4,0.4h-0.7c-0.3,0-0.4-0.1-0.4-0.4v-2.1l0-0.9c-0.2,0.3-0.4,0.6-0.5,0.8
			s-0.4,0.5-0.6,0.7c-0.8,0.7-1.6,1.3-2.5,1.6s-1.9,0.6-3,0.6c-0.8,0-1.5-0.1-2.2-0.3c-0.7-0.2-1.4-0.5-2-0.8
			c-0.6-0.4-1.2-0.8-1.7-1.3c-0.5-0.5-0.9-1.1-1.3-1.7c-0.4-0.6-0.6-1.3-0.8-2s-0.3-1.4-0.3-2.2s0.1-1.5,0.3-2.2
			c0.2-0.7,0.5-1.4,0.8-2c0.4-0.6,0.8-1.2,1.3-1.7c0.5-0.5,1.1-0.9,1.7-1.3c0.6-0.4,1.3-0.6,2-0.8c0.7-0.2,1.4-0.3,2.2-0.3
			c0.5,0,1,0.1,1.6,0.2c0.5,0.1,1,0.3,1.5,0.5c0.5,0.2,0.9,0.4,1.3,0.7s0.8,0.6,1.2,0.9c0.2,0.2,0.4,0.5,0.6,0.7
			c0.2,0.2,0.4,0.5,0.6,0.8v-8.1c0-0.1,0-0.1,0.1-0.2c0,0,0.1-0.1,0.2-0.1l0.9,0c0.2,0,0.3,0.1,0.3,0.3V369.4z M220.5,361.8
			c0,0.9,0.2,1.8,0.5,2.6c0.3,0.8,0.8,1.6,1.4,2.2s1.3,1.1,2.1,1.5s1.7,0.6,2.6,0.6c0.9,0,1.8-0.2,2.7-0.5c0.8-0.4,1.6-0.8,2.2-1.5
			c0.6-0.6,1.1-1.3,1.5-2.2c0.4-0.8,0.5-1.7,0.5-2.7c0-0.9-0.2-1.8-0.5-2.7c-0.4-0.8-0.8-1.6-1.5-2.2s-1.3-1.1-2.2-1.5
			c-0.8-0.4-1.7-0.6-2.6-0.6c-0.9,0-1.8,0.2-2.6,0.5c-0.8,0.4-1.5,0.9-2.2,1.5c-0.6,0.6-1.1,1.4-1.5,2.2
			C220.7,360,220.5,360.9,220.5,361.8z"/>
	</g>
	<g>
		<path class="st3" d="M237.7,349.1c0-0.2,0-0.3,0.1-0.4s0.1-0.2,0.3-0.2h0.2h0.7c0.2,0,0.3,0.1,0.3,0.2s0.1,0.2,0.1,0.4v0.5
			c0,0.2,0,0.4-0.1,0.5s-0.2,0.1-0.5,0.1h-0.5c-0.2,0-0.4,0-0.5-0.1c-0.1-0.1-0.1-0.2-0.1-0.3V349.1z M237.8,354.2
			c0-0.3,0.1-0.4,0.4-0.4h0.7c0.3,0,0.4,0.1,0.4,0.4v15.2c0,0.3-0.1,0.4-0.4,0.4h-0.7c-0.3,0-0.4-0.1-0.4-0.4V354.2z"/>
	</g>
	<g>
		<path class="st3" d="M254.2,368l0-0.8c-0.3,0.4-0.6,0.8-0.9,1.2c-0.4,0.3-0.7,0.6-1.2,0.9c-0.4,0.2-0.9,0.4-1.4,0.6
			c-0.5,0.1-1.1,0.2-1.6,0.2c-1,0-1.9-0.2-2.7-0.5s-1.5-0.8-2.1-1.4c-0.6-0.6-1.1-1.3-1.4-2.1c-0.3-0.8-0.5-1.7-0.5-2.6v-9
			c0-0.2,0-0.3,0.1-0.4s0.2-0.1,0.4-0.1h0.5c0.2,0,0.3,0,0.4,0.1c0.1,0.1,0.1,0.2,0.1,0.4v9.1c0,0.7,0.2,1.3,0.4,2
			c0.3,0.6,0.6,1.2,1.1,1.7c0.5,0.5,1,0.9,1.7,1.2c0.6,0.3,1.4,0.4,2.2,0.4c0.7,0,1.3-0.1,1.9-0.4c0.6-0.2,1.1-0.6,1.6-1
			s0.9-1,1.1-1.6s0.4-1.3,0.5-2v-9.4c0-0.3,0.1-0.4,0.4-0.4h0.7c0.3,0,0.4,0.1,0.4,0.4v15.2c0,0.4-0.2,0.5-0.5,0.5h-0.5
			c-0.3,0-0.5-0.2-0.5-0.5V368z"/>
	</g>
	<g>
		<path class="st3" d="M264.4,355c-0.6,0-1.1,0.1-1.7,0.3c-0.5,0.2-1,0.5-1.4,0.9s-0.8,0.8-1,1.3c-0.3,0.5-0.4,1.1-0.5,1.7v6.5
			c0,0,0,0.1,0,0.1c0,0,0,0,0,0.1v3.5c0,0.3-0.1,0.4-0.4,0.4h-0.7c-0.3,0-0.4-0.1-0.4-0.4v-15.2c0-0.1,0-0.3,0.1-0.3
			c0.1-0.1,0.2-0.1,0.3-0.1h0.5c0.2,0,0.3,0,0.3,0.1s0.1,0.2,0.1,0.3v1.9c0.3-0.4,0.6-0.8,0.9-1.1c0.3-0.3,0.7-0.6,1.1-0.8
			c0.4-0.2,0.8-0.4,1.2-0.5c0.4-0.1,0.9-0.2,1.5-0.2c1.3,0,2.3,0.3,3.2,0.9s1.6,1.4,2.1,2.5c0.2-0.6,0.5-1.1,0.9-1.5
			c0.4-0.4,0.8-0.8,1.3-1.1c0.5-0.3,1-0.5,1.5-0.6c0.5-0.1,1.1-0.2,1.7-0.2c0.8,0,1.6,0.1,2.2,0.4s1.3,0.6,1.8,1.1s0.9,1,1.2,1.7
			s0.5,1.3,0.6,2.1c0,0.3,0.1,0.6,0.1,0.9c0,0.3,0,0.6,0,0.9v8.6c0,0.2,0,0.3-0.1,0.4c-0.1,0.1-0.2,0.1-0.4,0.1h-0.5
			c-0.2,0-0.3,0-0.4-0.1c-0.1-0.1-0.1-0.2-0.1-0.4v-9.5c0-0.6-0.1-1.2-0.4-1.7c-0.2-0.6-0.5-1.1-0.9-1.5c-0.4-0.4-0.9-0.8-1.4-1.1
			c-0.6-0.3-1.2-0.4-1.9-0.4c-0.6,0-1.1,0.1-1.6,0.3c-0.5,0.2-0.9,0.4-1.3,0.8s-0.7,0.7-1,1.2s-0.4,0.9-0.5,1.5
			c-0.1,0.6-0.2,1.2-0.2,1.8v8.7c0,0.2,0,0.3-0.1,0.4c-0.1,0.1-0.2,0.1-0.4,0.1h-0.5c-0.2,0-0.3,0-0.4-0.1c-0.1-0.1-0.1-0.2-0.1-0.4
			v-8.7c0-0.3,0-0.5,0-0.8c0-0.3,0-0.6-0.1-0.8c-0.1-0.5-0.2-1-0.5-1.5c-0.2-0.5-0.6-0.9-1-1.2c-0.4-0.3-0.8-0.6-1.4-0.8
			S265.1,355,264.4,355z"/>
	</g>
</g>
<g>
	<g>
		<path class="st3" d="M127.9,385.8h9.3v47.4h-4.7v-42.8h-7.5L127.9,385.8z"/>
	</g>
	<g>
		<path class="st3" d="M167,434.5c-5.1,0-9-2.1-11.8-6.3c-2.8-4.2-4.1-10.4-4.1-18.6s1.4-14.4,4.1-18.6c2.8-4.2,6.7-6.3,11.7-6.3
			c5.1,0,9.1,2.1,12.1,6.4c3,4.3,4.5,10.5,4.5,18.5c0,8-1.5,14.2-4.5,18.5C176,432.3,172,434.5,167,434.5z M167.2,389.1
			c-3.7,0-6.5,1.8-8.5,5.3c-2,3.5-3,8.6-3,15.3c0,13.7,3.9,20.5,11.6,20.5c3.7,0,6.7-1.8,8.8-5.4c2.1-3.6,3.1-8.7,3.1-15.2
			s-1.1-11.6-3.2-15.1C173.6,390.9,170.8,389.1,167.2,389.1z"/>
	</g>
	<g>
		<path class="st3" d="M189.9,400.7h-4.6c0.2-4.8,1.8-8.7,4.8-11.7s6.6-4.4,10.9-4.4s7.8,1.4,10.6,4.1s4.2,6.1,4.2,10.1
			c0,3-0.8,5.7-2.3,8.2s-3.9,5.5-7.1,8.9l-11.8,12.8h21.9v4.6h-32.2l18.1-19.6c3.2-3.4,5.4-6.1,6.8-8.1s2-4.2,2-6.8
			c0-2.6-1-4.8-3-6.7c-2-1.9-4.5-2.9-7.5-2.9s-5.4,1-7.4,3C191.4,394.2,190.3,397,189.9,400.7z"/>
	</g>
	<g>
		<path class="st3" d="M221.6,430.2c0-1.1,0.4-2,1.2-2.8c0.8-0.8,1.7-1.2,2.8-1.2c1.1,0,2,0.4,2.8,1.2c0.8,0.8,1.2,1.7,1.2,2.8
			s-0.4,2.1-1.2,2.8s-1.7,1.2-2.8,1.2c-1.1,0-2-0.4-2.8-1.2S221.6,431.3,221.6,430.2z"/>
	</g>
	<g>
		<path class="st3" d="M243.3,434.5l-3.9-2.5l12.8-19.4c-1.7,0.6-3.3,0.9-5,0.9c-3.8,0-7-1.4-9.5-4.1c-2.6-2.7-3.9-6.1-3.9-10.2
			s1.4-7.5,4.3-10.3c2.9-2.8,6.4-4.2,10.5-4.2c4.2,0,7.6,1.4,10.3,4.3c2.7,2.8,4.1,6.2,4.1,10.2c0,2.2-0.5,4.4-1.4,6.6
			c-0.9,2.2-2.2,4.6-4,7.2L243.3,434.5z M238.4,399.3c0,2.8,1,5.1,2.9,7.1c1.9,1.9,4.3,2.9,7.1,2.9s5.1-1,7.1-2.9
			c1.9-2,2.9-4.3,2.9-7c0-2.7-1-5.1-2.9-7c-1.9-2-4.3-2.9-7.1-2.9s-5.1,1-7.1,2.9C239.4,394.1,238.4,396.5,238.4,399.3z"/>
	</g>
	<g>
		<path class="st3" d="M281.9,434.5c-5.1,0-9-2.1-11.8-6.3c-2.8-4.2-4.1-10.4-4.1-18.6s1.4-14.4,4.1-18.6c2.8-4.2,6.7-6.3,11.7-6.3
			c5.1,0,9.1,2.1,12.1,6.4c3,4.3,4.5,10.5,4.5,18.5c0,8-1.5,14.2-4.5,18.5C290.9,432.3,286.9,434.5,281.9,434.5z M282.1,389.1
			c-3.7,0-6.5,1.8-8.5,5.3c-2,3.5-3,8.6-3,15.3c0,13.7,3.9,20.5,11.6,20.5c3.7,0,6.7-1.8,8.8-5.4c2.1-3.6,3.1-8.7,3.1-15.2
			s-1.1-11.6-3.2-15.1C288.5,390.9,285.7,389.1,282.1,389.1z"/>
	</g>
	<g>
		<path class="st3" d="M321.4,384.7l3.9,2.5l-12.8,19.4c1.8-0.6,3.5-0.9,5.2-0.9c3.5,0,6.6,1.4,9.2,4.2c2.6,2.8,4,6.2,4,10.2
			c0,4-1.4,7.4-4.3,10.2c-2.9,2.8-6.4,4.2-10.5,4.2s-7.6-1.4-10.3-4.2c-2.8-2.8-4.1-6.3-4.1-10.3c0-1.9,0.4-3.9,1.1-6
			c0.8-2,2.2-4.7,4.3-7.8L321.4,384.7z M326.2,419.9c0-2.8-1-5.1-2.9-7.1c-1.9-1.9-4.3-2.9-7.1-2.9s-5.1,1-7.1,2.9
			c-1.9,1.9-2.9,4.3-2.9,7.1c0,2.8,1,5.1,2.9,7.1c2,1.9,4.3,2.9,7,2.9c2.7,0,5.1-1,7-2.9C325.2,425,326.2,422.6,326.2,419.9z"/>
	</g>
</g>
<g>
	<g>
		<path class="st3" d="M8,4.4v446.2h446.2V4.4H8z M442.1,439.5h-424v-424h424V439.5z"/>
	</g>
</g>
<g>
	<path class="st3" d="M64.6,31.2h-2.8l-28.2,40h23.9v11h7.1v-11h5.7v-7h-5.7V31.2z M47.1,64.3l10.4-14.7v14.7H47.1z"/>
	<path class="st3" d="M101.4,53.7c-3.9-4.1-9.2-5.6-15.7-4.3l1.9-10.1h17.1v-6.9H81.9l-5,26.7l1.3-0.6c4.1-1.8,7.8-2.6,10.8-2.6
		c3,0,5.3,0.9,7,2.7c1.7,1.8,2.6,4.1,2.6,6.9c0,3.2-1,5.8-3,7.9c-2,2.1-4.4,3.2-7.2,3.2c-2.1,0-3.9-0.6-5.5-2
		c-1.6-1.3-2.7-3.2-3.2-5.7l-0.1-0.6h-7.2l0.1,0.9c0.6,4.4,2.3,7.9,5.2,10.4c2.9,2.5,6.4,3.8,10.5,3.8c5.3,0,9.7-1.8,12.9-5.2
		c3.2-3.5,4.8-7.7,4.8-12.5C105.9,60.9,104.3,56.8,101.4,53.7z"/>
</g>
<g>
	<g>
		<path class="st3" d="M69.8,305.6V128.2h91.4c16.9,0,29.9,1.5,38.9,4.4c9,2.9,16.2,8.3,21.7,16.2c5.5,7.9,8.2,17.5,8.2,28.7
			c0,9.8-2.1,18.3-6.3,25.5c-4.2,7.1-10,12.9-17.3,17.4c-4.7,2.8-11.1,5.2-19.3,7c6.5,2.2,11.3,4.4,14.3,6.5c2,1.5,4.9,4.6,8.8,9.3
			c3.8,4.8,6.4,8.4,7.7,11l26.6,51.4h-62L153,251.4c-3.7-7-7-11.6-9.9-13.7c-4-2.7-8.4-4.1-13.4-4.1h-4.8v72H69.8z M124.8,200.1H148
			c2.5,0,7.3-0.8,14.5-2.4c3.6-0.7,6.6-2.6,8.9-5.6c2.3-3,3.4-6.4,3.4-10.3c0-5.7-1.8-10.1-5.4-13.2c-3.6-3.1-10.5-4.6-20.5-4.6
			h-24.1V200.1z"/>
	</g>
	<g>
		<path class="st3" d="M258.6,128.2h49.3v65.4c6.7-6.9,13.4-11.9,20-14.9c6.6-3,14.4-4.5,23.5-4.5c13.4,0,23.9,4.1,31.7,12.2
			c7.7,8.2,11.6,20.7,11.6,37.5v81.7H345v-70.7c0-8.1-1.5-13.8-4.5-17.1c-3-3.3-7.2-5-12.6-5c-6,0-10.8,2.3-14.5,6.8
			c-3.7,4.5-5.6,12.6-5.6,24.3v61.7h-49.3V128.2z"/>
	</g>
</g>
</svg>
