<?xml version="1.0" encoding="utf-8"?>
<!-- Generator: Adobe Illustrator 26.0.3, SVG Export Plug-In . SVG Version: 6.00 Build 0)  -->
<svg version="1.1" id="Capa_1" xmlns="http://www.w3.org/2000/svg" xmlns:xlink="http://www.w3.org/1999/xlink" x="0px" y="0px"
	 viewBox="0 0 464 457" style="enable-background:new 0 0 464 457;" xml:space="preserve">
<style type="text/css">
	.st0{fill:#140091;}
	.st1{fill:#F7901E;}
	.st2{fill:#666666;}
	.st3{fill:#FF613C;}
</style>
<g>
	<g>
		<path class="st3" d="M108.2,344.2l15.5-40.4h5.8l16.5,40.4h-6.1l-4.7-12.2h-16.9l-4.4,12.2H108.2z M119.8,327.7h13.7l-4.2-11.2
			c-1.3-3.4-2.2-6.2-2.9-8.4c-0.5,2.6-1.2,5.2-2.2,7.7L119.8,327.7z"/>
	</g>
	<g>
		<path class="st3" d="M149.6,344.2V315h4.5v4.2c2.1-3.2,5.2-4.8,9.3-4.8c1.8,0,3.4,0.3,4.9,0.9c1.5,0.6,2.6,1.5,3.3,2.5
			c0.7,1,1.2,2.2,1.5,3.7c0.2,0.9,0.3,2.5,0.3,4.8v18h-5v-17.8c0-2-0.2-3.5-0.6-4.5c-0.4-1-1.1-1.8-2.1-2.4c-1-0.6-2.1-0.9-3.5-0.9
			c-2.1,0-3.9,0.7-5.5,2c-1.5,1.3-2.3,3.9-2.3,7.6v16H149.6z"/>
	</g>
	<g>
		<path class="st3" d="M191.8,339.8l0.7,4.4c-1.4,0.3-2.6,0.4-3.7,0.4c-1.8,0-3.2-0.3-4.2-0.9c-1-0.6-1.7-1.3-2.1-2.2
			c-0.4-0.9-0.6-2.9-0.6-5.9v-16.8h-3.6V315h3.6v-7.2l4.9-3V315h5v3.9h-5v17.1c0,1.4,0.1,2.3,0.3,2.7c0.2,0.4,0.5,0.7,0.9,1
			c0.4,0.2,1,0.4,1.7,0.4C190.2,340,190.9,339.9,191.8,339.8z"/>
	</g>
	<g>
		<path class="st3" d="M196.7,309.6v-5.7h5v5.7H196.7z M196.7,344.2V315h5v29.2H196.7z"/>
	</g>
	<g>
		<path class="st3" d="M209.2,344.2V315h4.4v4.1c0.9-1.4,2.1-2.6,3.7-3.5c1.5-0.9,3.3-1.3,5.2-1.3c2.2,0,3.9,0.4,5.3,1.3
			c1.4,0.9,2.4,2.2,2.9,3.8c2.3-3.4,5.3-5.1,9-5.1c2.9,0,5.1,0.8,6.7,2.4s2.3,4.1,2.3,7.4v20.1h-4.9v-18.4c0-2-0.2-3.4-0.5-4.3
			c-0.3-0.9-0.9-1.6-1.7-2.1c-0.8-0.5-1.8-0.8-3-0.8c-2.1,0-3.8,0.7-5.1,2.1c-1.4,1.4-2,3.6-2,6.6v17h-5v-19c0-2.2-0.4-3.9-1.2-5
			c-0.8-1.1-2.1-1.7-4-1.7c-1.4,0-2.7,0.4-3.9,1.1c-1.2,0.7-2,1.8-2.6,3.2c-0.5,1.4-0.8,3.5-0.8,6.1v15.2H209.2z"/>
	</g>
	<g>
		<path class="st3" d="M254.3,329.6c0-5.4,1.5-9.4,4.5-12c2.5-2.2,5.6-3.2,9.2-3.2c4,0,7.3,1.3,9.9,4c2.6,2.6,3.8,6.3,3.8,10.9
			c0,3.8-0.6,6.7-1.7,8.9s-2.8,3.8-4.9,5s-4.5,1.8-7.1,1.8c-4.1,0-7.4-1.3-9.9-3.9C255.6,338.3,254.3,334.5,254.3,329.6z
			 M259.4,329.6c0,3.7,0.8,6.5,2.5,8.4c1.6,1.9,3.7,2.8,6.2,2.8c2.5,0,4.5-0.9,6.1-2.8c1.6-1.9,2.5-4.7,2.5-8.6
			c0-3.6-0.8-6.4-2.5-8.2c-1.6-1.9-3.7-2.8-6.1-2.8c-2.5,0-4.5,0.9-6.2,2.8C260.2,323.1,259.4,325.9,259.4,329.6z"/>
	</g>
	<g>
		<path class="st3" d="M287.5,344.2V315h4.5v4.2c2.1-3.2,5.2-4.8,9.3-4.8c1.8,0,3.4,0.3,4.9,0.9c1.5,0.6,2.6,1.5,3.3,2.5
			c0.7,1,1.2,2.2,1.5,3.7c0.2,0.9,0.3,2.5,0.3,4.8v18h-5v-17.8c0-2-0.2-3.5-0.6-4.5c-0.4-1-1.1-1.8-2.1-2.4c-1-0.6-2.1-0.9-3.5-0.9
			c-2.1,0-3.9,0.7-5.5,2c-1.5,1.3-2.3,3.9-2.3,7.6v16H287.5z"/>
	</g>
	<g>
		<path class="st3" d="M318.7,355.5l-0.6-4.7c1.1,0.3,2,0.4,2.8,0.4c1.1,0,2-0.2,2.6-0.6c0.7-0.4,1.2-0.9,1.6-1.5
			c0.3-0.5,0.8-1.7,1.5-3.7c0.1-0.3,0.2-0.7,0.4-1.2L316.1,315h5.3l6.1,16.9c0.8,2.1,1.5,4.4,2.1,6.8c0.6-2.3,1.2-4.5,2-6.7l6.3-17
			h5l-11.1,29.7c-1.2,3.2-2.1,5.4-2.8,6.6c-0.9,1.6-1.9,2.8-3,3.6s-2.5,1.1-4.1,1.1C320.9,356.1,319.8,355.9,318.7,355.5z"/>
	</g>
</g>
<g>
	<g>
		<path class="st3" d="M150.7,367.4h9.2v46.7h-4.6V372h-7.3L150.7,367.4z"/>
	</g>
	<g>
		<path class="st3" d="M179,382h-4.5c0.2-4.8,1.8-8.6,4.7-11.5c2.9-2.9,6.5-4.3,10.7-4.3c4.2,0,7.6,1.4,10.4,4.1
			c2.8,2.7,4.1,6,4.1,9.9c0,2.9-0.8,5.6-2.3,8.1c-1.5,2.5-3.9,5.4-7,8.8l-11.6,12.5h21.6v4.5h-31.7l17.8-19.2c3.1-3.4,5.4-6,6.7-8
			c1.3-2,2-4.2,2-6.7c0-2.5-1-4.7-3-6.6c-2-1.9-4.4-2.9-7.3-2.9s-5.4,1-7.3,3C180.4,375.6,179.3,378.4,179,382z"/>
	</g>
	<g>
		<path class="st3" d="M216.2,367.4h9.2v46.7h-4.6V372h-7.3L216.2,367.4z"/>
	</g>
	<g>
		<path class="st3" d="M242.9,411c0-1.1,0.4-2,1.2-2.8c0.8-0.8,1.7-1.1,2.8-1.1c1.1,0,2,0.4,2.7,1.1c0.8,0.8,1.1,1.7,1.1,2.8
			c0,1.1-0.4,2-1.1,2.8c-0.8,0.8-1.7,1.1-2.7,1.1c-1.1,0-2-0.4-2.8-1.2C243.3,413,242.9,412.1,242.9,411z"/>
	</g>
	<g>
		<path class="st3" d="M256.4,367.4H286l-25,47.8l-3.8-2l21.6-41.5h-22.4V367.4z"/>
	</g>
	<g>
		<path class="st3" d="M308.4,366.2l3.8,2.5l-12.6,19.1c1.8-0.6,3.5-0.9,5.1-0.9c3.5,0,6.5,1.4,9.1,4.1c2.6,2.8,3.9,6.1,3.9,10.1
			c0,4-1.4,7.3-4.3,10c-2.8,2.7-6.3,4.1-10.3,4.1c-4.1,0-7.4-1.4-10.1-4.2c-2.7-2.8-4.1-6.2-4.1-10.1c0-1.9,0.4-3.9,1.1-5.9
			c0.7-2,2.1-4.6,4.2-7.7L308.4,366.2z M313,400.9c0-2.7-1-5-2.9-7c-1.9-1.9-4.2-2.9-7-2.9s-5,1-7,2.9c-1.9,1.9-2.9,4.2-2.9,7
			c0,2.7,1,5,2.9,7c1.9,1.9,4.2,2.9,6.9,2.9c2.7,0,5-1,6.9-2.9C312.1,405.9,313,403.6,313,400.9z"/>
	</g>
</g>
<g>
	<g>
		<path class="st3" d="M8,4.4v446.2h446.2V4.4H8z M442.1,439.5h-424v-424h424V439.5z"/>
	</g>
</g>
<g>
	<path class="st3" d="M49.1,49.4L51,39.3h17.1v-6.9H45.3l-5,26.7l1.3-0.6c4.1-1.8,7.8-2.6,10.8-2.6c3,0,5.3,0.9,7,2.7
		c1.7,1.8,2.6,4.1,2.6,6.9c0,3.2-1,5.8-3,7.9c-2,2.1-4.4,3.2-7.2,3.2c-2.1,0-3.9-0.6-5.5-2c-1.6-1.3-2.7-3.2-3.2-5.7l-0.1-0.6h-7.2
		l0.1,0.9c0.6,4.4,2.3,7.9,5.2,10.4c2.9,2.5,6.4,3.8,10.5,3.8c5.3,0,9.7-1.8,12.9-5.2c3.2-3.5,4.8-7.7,4.8-12.5
		c0-4.8-1.5-8.9-4.5-12C60.8,49.6,55.6,48.1,49.1,49.4z"/>
	<polygon class="st3" points="74.8,39.5 83.3,39.5 83.3,82.3 90.4,82.3 90.4,32.4 79.2,32.4 	"/>
</g>
<g>
	<g>
		<path class="st3" d="M95.6,189.7l33.2-3.2c2,11.1,6,19.3,12.1,24.5c6.1,5.2,14.3,7.8,24.7,7.8c11,0,19.2-2.3,24.8-7
			c5.6-4.6,8.3-10.1,8.3-16.3c0-4-1.2-7.4-3.5-10.2c-2.3-2.8-6.4-5.2-12.3-7.3c-4-1.4-13.1-3.8-27.3-7.4
			c-18.3-4.5-31.1-10.1-38.5-16.7c-10.4-9.3-15.5-20.6-15.5-34c0-8.6,2.4-16.6,7.3-24.1c4.9-7.5,11.9-13.2,21.1-17.1
			c9.2-3.9,20.2-5.9,33.2-5.9c21.2,0,37.1,4.6,47.8,13.9c10.7,9.3,16.3,21.7,16.9,37.2l-34.1,1.5c-1.5-8.7-4.6-14.9-9.4-18.7
			c-4.8-3.8-12-5.7-21.6-5.7c-9.9,0-17.7,2-23.3,6.1c-3.6,2.6-5.4,6.1-5.4,10.5c0,4,1.7,7.4,5.1,10.2c4.3,3.6,14.7,7.4,31.3,11.3
			s28.8,8,36.8,12.1c7.9,4.2,14.2,9.9,18.7,17.2s6.7,16.2,6.7,26.9c0,9.7-2.7,18.7-8.1,27.2c-5.4,8.4-13,14.7-22.8,18.8
			c-9.8,4.1-22.1,6.2-36.7,6.2c-21.3,0-37.7-4.9-49.2-14.8C104.7,223,97.8,208.6,95.6,189.7z"/>
	</g>
	<g>
		<path class="st3" d="M248.1,244.7V75.9h32.4v60.8c10-11.4,21.8-17,35.5-17c14.9,0,27.2,5.4,37,16.2c9.7,10.8,14.6,26.3,14.6,46.5
			c0,20.9-5,37-14.9,48.2c-9.9,11.3-22,16.9-36.2,16.9c-7,0-13.9-1.7-20.7-5.2c-6.8-3.5-12.6-8.7-17.6-15.5v18H248.1z M280.2,180.9
			c0,12.7,2,22,6,28.1c5.6,8.6,13,12.9,22.3,12.9c7.1,0,13.2-3.1,18.2-9.2c5-6.1,7.5-15.7,7.5-28.8c0-14-2.5-24-7.6-30.2
			c-5.1-6.2-11.6-9.3-19.5-9.3c-7.8,0-14.2,3-19.3,9C282.8,159.5,280.2,168.6,280.2,180.9z"/>
	</g>
</g>
</svg>
